<svg width="100" height="100" viewBox="0 0 100 100" fill="none" xmlns="http://www.w3.org/2000/svg">
  <rect width="100" height="100" rx="30" fill="url(#paint0_linear)"/>
  <path d="M30 40C30 34.4772 34.4772 30 40 30H60C65.5228 30 70 34.4772 70 40V60C70 65.5228 65.5228 70 60 70H40C34.4772 70 30 65.5228 30 60V40Z" fill="white" fill-opacity="0.1"/>
  <circle cx="40" cy="45" r="4" fill="#A855F7" class="eye">
    <animate attributeName="opacity" values="1;0.3;1" dur="3s" repeatCount="indefinite" />
  </circle>
  <circle cx="60" cy="45" r="4" fill="#A855F7" class="eye">
    <animate attributeName="opacity" values="1;0.3;1" dur="3s" repeatCount="indefinite" />
  </circle>
  <path d="M40 60C45 63 55 63 60 60" stroke="#A855F7" stroke-width="3" stroke-linecap="round"/>
  <path d="M20 20L30 30M80 80L70 70M80 20L70 30M20 80L30 70" stroke="white" stroke-opacity="0.2" stroke-width="2"/>
  <defs>
    <linearGradient id="paint0_linear" x1="0" y1="0" x2="100" y2="100" gradientUnits="userSpaceOnUse">
      <stop stop-color="#1E1B4B"/>
      <stop offset="1" stop-color="#4C1D95"/>
    </linearGradient>
  </defs>
</svg>
